<svg width="301" height="43" viewBox="0 0 301 43" fill="none" xmlns="http://www.w3.org/2000/svg">
<path d="M13.392 34.36C11.088 34.36 9.048 34.024 7.272 33.352C5.496 32.68 4.08 31.624 3.024 30.184C1.992 28.744 1.428 26.884 1.332 24.604C1.308 23.62 1.296 22.564 1.296 21.436C1.296 20.308 1.308 19.228 1.332 18.196C1.428 15.964 2.004 14.128 3.06 12.688C4.14 11.248 5.568 10.18 7.344 9.484C9.144 8.788 11.16 8.44 13.392 8.44C14.928 8.44 16.404 8.62 17.82 8.98C19.26 9.316 20.556 9.856 21.708 10.6C22.86 11.344 23.772 12.304 24.444 13.48C25.14 14.632 25.5 16.024 25.524 17.656C25.524 17.872 25.44 18.064 25.272 18.232C25.128 18.376 24.948 18.448 24.732 18.448H17.388C17.004 18.448 16.716 18.376 16.524 18.232C16.356 18.064 16.2 17.788 16.056 17.404C15.792 16.636 15.432 16.12 14.976 15.856C14.52 15.592 13.98 15.46 13.356 15.46C12.564 15.46 11.928 15.676 11.448 16.108C10.992 16.516 10.74 17.272 10.692 18.376C10.62 20.344 10.62 22.36 10.692 24.424C10.74 25.528 10.992 26.296 11.448 26.728C11.928 27.136 12.564 27.34 13.356 27.34C13.98 27.34 14.52 27.196 14.976 26.908C15.456 26.62 15.816 26.116 16.056 25.396C16.176 24.988 16.332 24.712 16.524 24.568C16.716 24.424 17.004 24.352 17.388 24.352H24.732C24.948 24.352 25.128 24.436 25.272 24.604C25.44 24.748 25.524 24.928 25.524 25.144C25.5 26.776 25.14 28.18 24.444 29.356C23.772 30.508 22.86 31.456 21.708 32.2C20.556 32.944 19.26 33.496 17.82 33.856C16.404 34.192 14.928 34.36 13.392 34.36ZM43.3583 34.36C41.0063 34.36 38.9423 34 37.1663 33.28C35.4143 32.56 34.0223 31.48 32.9903 30.04C31.9823 28.576 31.4303 26.776 31.3343 24.64C31.3103 23.656 31.2983 22.612 31.2983 21.508C31.2983 20.404 31.3103 19.336 31.3343 18.304C31.4303 16.192 31.9823 14.404 32.9903 12.94C33.9983 11.476 35.3903 10.36 37.1663 9.592C38.9423 8.824 41.0063 8.44 43.3583 8.44C45.7103 8.44 47.7743 8.824 49.5503 9.592C51.3263 10.36 52.7183 11.476 53.7263 12.94C54.7583 14.404 55.3103 16.192 55.3823 18.304C55.4303 19.336 55.4543 20.404 55.4543 21.508C55.4543 22.612 55.4303 23.656 55.3823 24.64C55.2863 26.776 54.7223 28.576 53.6903 30.04C52.6823 31.48 51.2903 32.56 49.5143 33.28C47.7623 34 45.7103 34.36 43.3583 34.36ZM43.3583 27.34C44.1503 27.34 44.7863 27.112 45.2663 26.656C45.7463 26.176 45.9983 25.432 46.0223 24.424C46.0703 23.392 46.0943 22.372 46.0943 21.364C46.0943 20.356 46.0703 19.36 46.0223 18.376C45.9983 17.704 45.8663 17.152 45.6263 16.72C45.4103 16.288 45.1103 15.976 44.7263 15.784C44.3423 15.568 43.8863 15.46 43.3583 15.46C42.8543 15.46 42.3983 15.568 41.9903 15.784C41.6063 15.976 41.2943 16.288 41.0543 16.72C40.8383 17.152 40.7183 17.704 40.6943 18.376C40.6703 19.36 40.6583 20.356 40.6583 21.364C40.6583 22.372 40.6703 23.392 40.6943 24.424C40.7423 25.432 40.9943 26.176 41.4503 26.656C41.9303 27.112 42.5663 27.34 43.3583 27.34ZM73.7851 34.36C71.4811 34.36 69.4411 34.012 67.6651 33.316C65.9131 32.62 64.5451 31.54 63.5611 30.076C62.5771 28.612 62.0851 26.752 62.0851 24.496V9.772C62.0851 9.508 62.1811 9.28 62.3731 9.088C62.5651 8.896 62.7931 8.8 63.0571 8.8H70.1131C70.3771 8.8 70.6051 8.896 70.7971 9.088C70.9891 9.28 71.0851 9.508 71.0851 9.772V24.352C71.0851 25.24 71.3011 25.924 71.7331 26.404C72.1891 26.884 72.8611 27.124 73.7491 27.124C74.6371 27.124 75.2971 26.884 75.7291 26.404C76.1851 25.924 76.4131 25.24 76.4131 24.352V9.772C76.4131 9.508 76.5091 9.28 76.7011 9.088C76.8931 8.896 77.1211 8.8 77.3851 8.8H84.4411C84.7051 8.8 84.9331 8.896 85.1251 9.088C85.3171 9.28 85.4131 9.508 85.4131 9.772V24.496C85.4131 26.752 84.9211 28.612 83.9371 30.076C82.9531 31.54 81.5851 32.62 79.8331 33.316C78.0811 34.012 76.0651 34.36 73.7851 34.36ZM93.7325 34C93.4685 34 93.2405 33.904 93.0485 33.712C92.8565 33.52 92.7605 33.292 92.7605 33.028V9.772C92.7605 9.508 92.8565 9.28 93.0485 9.088C93.2405 8.896 93.4685 8.8 93.7325 8.8H99.4205C99.9005 8.8 100.248 8.908 100.464 9.124C100.68 9.34 100.824 9.508 100.896 9.628L106.98 19.6V9.772C106.98 9.508 107.076 9.28 107.268 9.088C107.46 8.896 107.688 8.8 107.952 8.8H114.468C114.732 8.8 114.96 8.896 115.152 9.088C115.344 9.28 115.44 9.508 115.44 9.772V33.028C115.44 33.292 115.344 33.52 115.152 33.712C114.96 33.904 114.732 34 114.468 34H108.78C108.3 34 107.952 33.892 107.736 33.676C107.52 33.436 107.376 33.268 107.304 33.172L101.22 23.992V33.028C101.22 33.292 101.124 33.52 100.932 33.712C100.74 33.904 100.512 34 100.248 34H93.7325ZM129.561 34C129.297 34 129.069 33.904 128.877 33.712C128.685 33.52 128.589 33.292 128.589 33.028V16.54H122.613C122.349 16.54 122.121 16.444 121.929 16.252C121.737 16.06 121.641 15.832 121.641 15.568V9.772C121.641 9.508 121.737 9.28 121.929 9.088C122.121 8.896 122.349 8.8 122.613 8.8H143.709C143.973 8.8 144.201 8.896 144.393 9.088C144.585 9.28 144.681 9.508 144.681 9.772V15.568C144.681 15.832 144.585 16.06 144.393 16.252C144.201 16.444 143.973 16.54 143.709 16.54H137.733V33.028C137.733 33.292 137.637 33.52 137.445 33.712C137.253 33.904 137.025 34 136.761 34H129.561ZM151.839 34C151.575 34 151.347 33.904 151.155 33.712C150.963 33.52 150.867 33.292 150.867 33.028V9.772C150.867 9.508 150.963 9.28 151.155 9.088C151.347 8.896 151.575 8.8 151.839 8.8H162.495C165.951 8.8 168.651 9.58 170.595 11.14C172.539 12.7 173.511 14.836 173.511 17.548C173.511 19.156 173.139 20.56 172.395 21.76C171.675 22.936 170.751 23.884 169.623 24.604L174.051 32.812C174.123 32.956 174.159 33.088 174.159 33.208C174.159 33.424 174.075 33.616 173.907 33.784C173.763 33.928 173.583 34 173.367 34H165.987C165.507 34 165.147 33.88 164.907 33.64C164.667 33.4 164.511 33.196 164.439 33.028L161.343 26.152H159.867V33.028C159.867 33.292 159.771 33.52 159.579 33.712C159.387 33.904 159.159 34 158.895 34H151.839ZM159.867 19.312H162.495C163.047 19.312 163.455 19.132 163.719 18.772C164.007 18.388 164.151 17.956 164.151 17.476C164.151 16.996 164.019 16.552 163.755 16.144C163.515 15.712 163.095 15.496 162.495 15.496H159.867V19.312ZM186.629 34C186.365 34 186.137 33.904 185.945 33.712C185.753 33.52 185.657 33.292 185.657 33.028V25.936L177.557 9.916C177.533 9.868 177.509 9.82 177.485 9.772C177.485 9.7 177.485 9.64 177.485 9.592C177.485 9.376 177.557 9.196 177.701 9.052C177.869 8.884 178.061 8.8 178.277 8.8H185.045C185.525 8.8 185.885 8.92 186.125 9.16C186.365 9.4 186.509 9.58 186.557 9.7L190.157 16.936L193.757 9.7C193.805 9.58 193.949 9.4 194.189 9.16C194.429 8.92 194.789 8.8 195.269 8.8H202.037C202.253 8.8 202.433 8.884 202.577 9.052C202.745 9.196 202.829 9.376 202.829 9.592C202.829 9.64 202.817 9.7 202.793 9.772C202.793 9.82 202.781 9.868 202.757 9.916L194.657 25.936V33.028C194.657 33.292 194.561 33.52 194.369 33.712C194.177 33.904 193.949 34 193.685 34H186.629ZM215.744 34C215.528 34 215.336 33.928 215.168 33.784C215.024 33.616 214.952 33.424 214.952 33.208C214.952 33.112 214.964 33.028 214.988 32.956L223.016 9.988C223.088 9.724 223.256 9.46 223.52 9.196C223.784 8.932 224.156 8.8 224.636 8.8H232.448C232.928 8.8 233.3 8.932 233.564 9.196C233.828 9.46 233.996 9.724 234.068 9.988L242.096 32.956C242.12 33.028 242.132 33.112 242.132 33.208C242.132 33.424 242.048 33.616 241.88 33.784C241.736 33.928 241.556 34 241.34 34H234.68C234.224 34 233.888 33.904 233.672 33.712C233.48 33.496 233.348 33.292 233.276 33.1L232.412 30.724H224.672L223.808 33.1C223.736 33.292 223.604 33.496 223.412 33.712C223.22 33.904 222.884 34 222.404 34H215.744ZM226.508 23.704H230.576L228.524 17.008L226.508 23.704ZM248.68 34C248.416 34 248.188 33.904 247.996 33.712C247.804 33.52 247.708 33.292 247.708 33.028V9.772C247.708 9.508 247.804 9.28 247.996 9.088C248.188 8.896 248.416 8.8 248.68 8.8H259.588C261.772 8.8 263.668 9.124 265.276 9.772C266.908 10.396 268.168 11.368 269.056 12.688C269.968 13.984 270.424 15.628 270.424 17.62C270.424 19.612 269.968 21.244 269.056 22.516C268.168 23.764 266.908 24.688 265.276 25.288C263.668 25.864 261.772 26.152 259.588 26.152H257.068V33.028C257.068 33.292 256.972 33.52 256.78 33.712C256.588 33.904 256.36 34 256.096 34H248.68ZM256.888 19.492H259.408C259.792 19.492 260.164 19.348 260.524 19.06C260.884 18.748 261.064 18.244 261.064 17.548C261.064 17.092 260.944 16.636 260.704 16.18C260.488 15.724 260.056 15.496 259.408 15.496H256.888V19.492ZM277.663 34C277.399 34 277.171 33.904 276.979 33.712C276.787 33.52 276.691 33.292 276.691 33.028V9.772C276.691 9.508 276.787 9.28 276.979 9.088C277.171 8.896 277.399 8.8 277.663 8.8H288.571C290.755 8.8 292.651 9.124 294.259 9.772C295.891 10.396 297.151 11.368 298.039 12.688C298.951 13.984 299.407 15.628 299.407 17.62C299.407 19.612 298.951 21.244 298.039 22.516C297.151 23.764 295.891 24.688 294.259 25.288C292.651 25.864 290.755 26.152 288.571 26.152H286.051V33.028C286.051 33.292 285.955 33.52 285.763 33.712C285.571 33.904 285.343 34 285.079 34H277.663ZM285.871 19.492H288.391C288.775 19.492 289.147 19.348 289.507 19.06C289.867 18.748 290.047 18.244 290.047 17.548C290.047 17.092 289.927 16.636 289.687 16.18C289.471 15.724 289.039 15.496 288.391 15.496H285.871V19.492Z" fill="white"/>
<path d="M0 41.5H18.8125H37.625H56.4375H75.25H94.0625H112.875H150.5H188.125H225.75H244.562H263.375H282.188H301" stroke="white" stroke-width="3"/>
</svg>
