<svg width="206" height="36" viewBox="0 0 206 36" fill="none" xmlns="http://www.w3.org/2000/svg">
<path d="M11.816 27.24C10.536 27.24 9.344 27.024 8.24 26.592C7.152 26.144 6.2 25.528 5.384 24.744C4.568 23.96 3.928 23.048 3.464 22.008C3.016 20.952 2.792 19.816 2.792 18.6C2.792 17.368 3.016 16.232 3.464 15.192C3.928 14.136 4.568 13.216 5.384 12.432C6.216 11.648 7.176 11.04 8.264 10.608C9.368 10.16 10.552 9.936 11.816 9.936C12.744 9.936 13.656 10.072 14.552 10.344C15.448 10.616 16.272 11 17.024 11.496C17.792 11.976 18.432 12.552 18.944 13.224L16.16 15.96C15.568 15.208 14.904 14.648 14.168 14.28C13.448 13.912 12.664 13.728 11.816 13.728C11.144 13.728 10.512 13.856 9.92 14.112C9.344 14.352 8.84 14.688 8.408 15.12C7.976 15.552 7.64 16.064 7.4 16.656C7.16 17.248 7.04 17.896 7.04 18.6C7.04 19.288 7.16 19.928 7.4 20.52C7.656 21.096 8 21.608 8.432 22.056C8.88 22.488 9.4 22.824 9.992 23.064C10.6 23.304 11.256 23.424 11.96 23.424C12.776 23.424 13.528 23.248 14.216 22.896C14.92 22.544 15.552 22.024 16.112 21.336L18.824 24C18.312 24.656 17.68 25.232 16.928 25.728C16.176 26.208 15.36 26.584 14.48 26.856C13.6 27.112 12.712 27.24 11.816 27.24ZM30.9961 27.264C29.7321 27.264 28.5561 27.048 27.4681 26.616C26.3801 26.168 25.4281 25.552 24.6121 24.768C23.7961 23.968 23.1561 23.048 22.6921 22.008C22.2441 20.952 22.0201 19.816 22.0201 18.6C22.0201 17.384 22.2441 16.256 22.6921 15.216C23.1561 14.16 23.7961 13.24 24.6121 12.456C25.4281 11.656 26.3801 11.04 27.4681 10.608C28.5561 10.16 29.7321 9.936 30.9961 9.936C32.2601 9.936 33.4361 10.16 34.5241 10.608C35.6121 11.04 36.5641 11.656 37.3801 12.456C38.1961 13.24 38.8281 14.16 39.2761 15.216C39.7401 16.256 39.9721 17.384 39.9721 18.6C39.9721 19.816 39.7401 20.952 39.2761 22.008C38.8281 23.048 38.1961 23.968 37.3801 24.768C36.5641 25.552 35.6121 26.168 34.5241 26.616C33.4361 27.048 32.2601 27.264 30.9961 27.264ZM30.9961 23.472C31.6681 23.472 32.2921 23.352 32.8681 23.112C33.4441 22.856 33.9401 22.512 34.3561 22.08C34.7881 21.648 35.1241 21.136 35.3641 20.544C35.6041 19.936 35.7241 19.288 35.7241 18.6C35.7241 17.896 35.6041 17.248 35.3641 16.656C35.1241 16.064 34.7881 15.552 34.3561 15.12C33.9401 14.688 33.4441 14.352 32.8681 14.112C32.2921 13.856 31.6681 13.728 30.9961 13.728C30.3241 13.728 29.7001 13.856 29.1241 14.112C28.5481 14.352 28.0441 14.688 27.6121 15.12C27.1961 15.552 26.8681 16.064 26.6281 16.656C26.3881 17.248 26.2681 17.896 26.2681 18.6C26.2681 19.288 26.3881 19.936 26.6281 20.544C26.8681 21.136 27.1961 21.648 27.6121 22.08C28.0441 22.512 28.5481 22.856 29.1241 23.112C29.7001 23.352 30.3241 23.472 30.9961 23.472ZM51.959 27.24C50.407 27.24 49.055 26.936 47.903 26.328C46.767 25.704 45.887 24.824 45.263 23.688C44.639 22.552 44.327 21.216 44.327 19.68V10.2H48.455V19.68C48.455 20.432 48.599 21.096 48.887 21.672C49.175 22.232 49.583 22.664 50.111 22.968C50.655 23.272 51.279 23.424 51.983 23.424C52.703 23.424 53.319 23.272 53.831 22.968C54.359 22.664 54.767 22.232 55.055 21.672C55.343 21.096 55.487 20.432 55.487 19.68V10.2H59.615V19.68C59.615 21.2 59.295 22.528 58.655 23.664C58.031 24.8 57.143 25.68 55.991 26.304C54.855 26.928 53.511 27.24 51.959 27.24ZM64.5686 27V10.2H68.4566L76.0886 19.944V10.2H79.9766V27H76.3286L68.4566 16.872V27H64.5686ZM89.6921 27V13.848H84.1961V10.2H99.3161V13.848H93.8201V27H89.6921ZM103.54 27V10.2H112.132C113.284 10.2 114.308 10.432 115.204 10.896C116.1 11.344 116.796 11.976 117.292 12.792C117.804 13.592 118.06 14.512 118.06 15.552C118.06 16.608 117.772 17.552 117.196 18.384C116.62 19.216 115.86 19.848 114.916 20.28L118.588 27H113.98L110.812 20.88H107.668V27H103.54ZM107.668 17.52H111.748C112.388 17.52 112.9 17.344 113.284 16.992C113.684 16.64 113.884 16.184 113.884 15.624C113.884 15.064 113.684 14.608 113.284 14.256C112.9 13.904 112.388 13.728 111.748 13.728H107.668V17.52ZM126.948 27V20.736L119.988 10.2H124.74L129.132 17.088L133.548 10.2H138.036L131.076 20.736V27H126.948ZM147.126 27L154.014 10.2H158.742L165.534 27H161.07L159.534 22.944H152.982L151.422 27H147.126ZM154.23 19.656H158.31L156.294 14.28L154.23 19.656ZM169.156 27V10.2H178.012C179.116 10.2 180.092 10.44 180.94 10.92C181.804 11.384 182.484 12.024 182.98 12.84C183.476 13.656 183.724 14.592 183.724 15.648C183.724 16.656 183.476 17.568 182.98 18.384C182.484 19.184 181.804 19.816 180.94 20.28C180.076 20.744 179.1 20.976 178.012 20.976H173.284V27H169.156ZM173.284 17.568H177.532C178.14 17.568 178.628 17.392 178.996 17.04C179.364 16.688 179.548 16.232 179.548 15.672C179.548 15.096 179.364 14.632 178.996 14.28C178.628 13.912 178.14 13.728 177.532 13.728H173.284V17.568ZM188.244 27V10.2H197.1C198.204 10.2 199.18 10.44 200.028 10.92C200.892 11.384 201.572 12.024 202.068 12.84C202.564 13.656 202.812 14.592 202.812 15.648C202.812 16.656 202.564 17.568 202.068 18.384C201.572 19.184 200.892 19.816 200.028 20.28C199.164 20.744 198.188 20.976 197.1 20.976H192.372V27H188.244ZM192.372 17.568H196.62C197.228 17.568 197.716 17.392 198.084 17.04C198.452 16.688 198.636 16.232 198.636 15.672C198.636 15.096 198.452 14.632 198.084 14.28C197.716 13.912 197.228 13.728 196.62 13.728H192.372V17.568Z" fill="white"/>
<path d="M13.816 25.24C12.536 25.24 11.344 25.024 10.24 24.592C9.152 24.144 8.2 23.528 7.384 22.744C6.568 21.96 5.928 21.048 5.464 20.008C5.016 18.952 4.792 17.816 4.792 16.6C4.792 15.368 5.016 14.232 5.464 13.192C5.928 12.136 6.568 11.216 7.384 10.432C8.216 9.648 9.176 9.04 10.264 8.608C11.368 8.16 12.552 7.936 13.816 7.936C14.744 7.936 15.656 8.072 16.552 8.344C17.448 8.616 18.272 9 19.024 9.496C19.792 9.976 20.432 10.552 20.944 11.224L18.16 13.96C17.568 13.208 16.904 12.648 16.168 12.28C15.448 11.912 14.664 11.728 13.816 11.728C13.144 11.728 12.512 11.856 11.92 12.112C11.344 12.352 10.84 12.688 10.408 13.12C9.976 13.552 9.64 14.064 9.4 14.656C9.16 15.248 9.04 15.896 9.04 16.6C9.04 17.288 9.16 17.928 9.4 18.52C9.656 19.096 10 19.608 10.432 20.056C10.88 20.488 11.4 20.824 11.992 21.064C12.6 21.304 13.256 21.424 13.96 21.424C14.776 21.424 15.528 21.248 16.216 20.896C16.92 20.544 17.552 20.024 18.112 19.336L20.824 22C20.312 22.656 19.68 23.232 18.928 23.728C18.176 24.208 17.36 24.584 16.48 24.856C15.6 25.112 14.712 25.24 13.816 25.24ZM32.9961 25.264C31.7321 25.264 30.5561 25.048 29.4681 24.616C28.3801 24.168 27.4281 23.552 26.6121 22.768C25.7961 21.968 25.1561 21.048 24.6921 20.008C24.2441 18.952 24.0201 17.816 24.0201 16.6C24.0201 15.384 24.2441 14.256 24.6921 13.216C25.1561 12.16 25.7961 11.24 26.6121 10.456C27.4281 9.656 28.3801 9.04 29.4681 8.608C30.5561 8.16 31.7321 7.936 32.9961 7.936C34.2601 7.936 35.4361 8.16 36.5241 8.608C37.6121 9.04 38.5641 9.656 39.3801 10.456C40.1961 11.24 40.8281 12.16 41.2761 13.216C41.7401 14.256 41.9721 15.384 41.9721 16.6C41.9721 17.816 41.7401 18.952 41.2761 20.008C40.8281 21.048 40.1961 21.968 39.3801 22.768C38.5641 23.552 37.6121 24.168 36.5241 24.616C35.4361 25.048 34.2601 25.264 32.9961 25.264ZM32.9961 21.472C33.6681 21.472 34.2921 21.352 34.8681 21.112C35.4441 20.856 35.9401 20.512 36.3561 20.08C36.7881 19.648 37.1241 19.136 37.3641 18.544C37.6041 17.936 37.7241 17.288 37.7241 16.6C37.7241 15.896 37.6041 15.248 37.3641 14.656C37.1241 14.064 36.7881 13.552 36.3561 13.12C35.9401 12.688 35.4441 12.352 34.8681 12.112C34.2921 11.856 33.6681 11.728 32.9961 11.728C32.3241 11.728 31.7001 11.856 31.1241 12.112C30.5481 12.352 30.0441 12.688 29.6121 13.12C29.1961 13.552 28.8681 14.064 28.6281 14.656C28.3881 15.248 28.2681 15.896 28.2681 16.6C28.2681 17.288 28.3881 17.936 28.6281 18.544C28.8681 19.136 29.1961 19.648 29.6121 20.08C30.0441 20.512 30.5481 20.856 31.1241 21.112C31.7001 21.352 32.3241 21.472 32.9961 21.472ZM53.959 25.24C52.407 25.24 51.055 24.936 49.903 24.328C48.767 23.704 47.887 22.824 47.263 21.688C46.639 20.552 46.327 19.216 46.327 17.68V8.2H50.455V17.68C50.455 18.432 50.599 19.096 50.887 19.672C51.175 20.232 51.583 20.664 52.111 20.968C52.655 21.272 53.279 21.424 53.983 21.424C54.703 21.424 55.319 21.272 55.831 20.968C56.359 20.664 56.767 20.232 57.055 19.672C57.343 19.096 57.487 18.432 57.487 17.68V8.2H61.615V17.68C61.615 19.2 61.295 20.528 60.655 21.664C60.031 22.8 59.143 23.68 57.991 24.304C56.855 24.928 55.511 25.24 53.959 25.24ZM66.5686 25V8.2H70.4566L78.0886 17.944V8.2H81.9766V25H78.3286L70.4566 14.872V25H66.5686ZM91.6921 25V11.848H86.1961V8.2H101.316V11.848H95.8201V25H91.6921ZM105.54 25V8.2H114.132C115.284 8.2 116.308 8.432 117.204 8.896C118.1 9.344 118.796 9.976 119.292 10.792C119.804 11.592 120.06 12.512 120.06 13.552C120.06 14.608 119.772 15.552 119.196 16.384C118.62 17.216 117.86 17.848 116.916 18.28L120.588 25H115.98L112.812 18.88H109.668V25H105.54ZM109.668 15.52H113.748C114.388 15.52 114.9 15.344 115.284 14.992C115.684 14.64 115.884 14.184 115.884 13.624C115.884 13.064 115.684 12.608 115.284 12.256C114.9 11.904 114.388 11.728 113.748 11.728H109.668V15.52ZM128.948 25V18.736L121.988 8.2H126.74L131.132 15.088L135.548 8.2H140.036L133.076 18.736V25H128.948ZM149.126 25L156.014 8.2H160.742L167.534 25H163.07L161.534 20.944H154.982L153.422 25H149.126ZM156.23 17.656H160.31L158.294 12.28L156.23 17.656ZM171.156 25V8.2H180.012C181.116 8.2 182.092 8.44 182.94 8.92C183.804 9.384 184.484 10.024 184.98 10.84C185.476 11.656 185.724 12.592 185.724 13.648C185.724 14.656 185.476 15.568 184.98 16.384C184.484 17.184 183.804 17.816 182.94 18.28C182.076 18.744 181.1 18.976 180.012 18.976H175.284V25H171.156ZM175.284 15.568H179.532C180.14 15.568 180.628 15.392 180.996 15.04C181.364 14.688 181.548 14.232 181.548 13.672C181.548 13.096 181.364 12.632 180.996 12.28C180.628 11.912 180.14 11.728 179.532 11.728H175.284V15.568ZM190.244 25V8.2H199.1C200.204 8.2 201.18 8.44 202.028 8.92C202.892 9.384 203.572 10.024 204.068 10.84C204.564 11.656 204.812 12.592 204.812 13.648C204.812 14.656 204.564 15.568 204.068 16.384C203.572 17.184 202.892 17.816 202.028 18.28C201.164 18.744 200.188 18.976 199.1 18.976H194.372V25H190.244ZM194.372 15.568H198.62C199.228 15.568 199.716 15.392 200.084 15.04C200.452 14.688 200.636 14.232 200.636 13.672C200.636 13.096 200.452 12.632 200.084 12.28C199.716 11.912 199.228 11.728 198.62 11.728H194.372V15.568Z" fill="black"/>
</svg>
